<svg width="40" height="40" viewBox="0 0 40 40" fill="none" xmlns="http://www.w3.org/2000/svg">
<circle cx="20" cy="20" r="20" fill="#222222"/>
<path d="M6.04883 22.6343L3.25977 21.3389V20.8296L6.04883 19.5376V20.2246L4.13818 21.021L3.84766 21.0825V21.103L4.13818 21.168L6.04883 21.9473V22.6343ZM7.92871 23.0718C7.54362 23.0718 7.25081 22.9784 7.05029 22.7915C6.84977 22.6024 6.74951 22.3369 6.74951 21.9951C6.74951 21.6442 6.89307 21.3628 7.18018 21.1509C7.46729 20.9367 7.86605 20.8296 8.37646 20.8296H9.03613V20.4673C9.03613 20.244 8.96777 20.0708 8.83105 19.9478C8.69661 19.8247 8.50635 19.7632 8.26025 19.7632C8.10531 19.7632 7.97087 19.7826 7.85693 19.8213C7.743 19.8577 7.63932 19.909 7.5459 19.9751L7.47412 20.4912H6.95459V19.6436C7.28955 19.3701 7.72819 19.2334 8.27051 19.2334C8.7194 19.2334 9.07145 19.3405 9.32666 19.5547C9.58187 19.7689 9.70947 20.0754 9.70947 20.4741V22.2549C9.70947 22.3027 9.70947 22.3494 9.70947 22.395C9.71175 22.4406 9.71517 22.4862 9.71973 22.5317L10.0786 22.5693V23H9.11133C9.07259 22.8132 9.04867 22.6434 9.03955 22.4907C8.90967 22.6571 8.74674 22.7961 8.55078 22.9077C8.3571 23.0171 8.14974 23.0718 7.92871 23.0718ZM8.02783 22.5078C8.25114 22.5078 8.45508 22.4543 8.63965 22.3472C8.82422 22.2401 8.95638 22.1113 9.03613 21.9609V21.291H8.35254C8.04264 21.291 7.81022 21.3651 7.65527 21.5132C7.50033 21.6613 7.42285 21.8265 7.42285 22.0088C7.42285 22.3415 7.62451 22.5078 8.02783 22.5078ZM12.0542 23.0718C11.7534 23.0718 11.4948 22.9977 11.2783 22.8496C11.0641 22.6992 10.9001 22.4907 10.7861 22.2241C10.6722 21.9575 10.6152 21.6465 10.6152 21.291V21.2192C10.6152 20.8228 10.6722 20.4753 10.7861 20.1768C10.9001 19.8783 11.0653 19.647 11.2817 19.4829C11.4982 19.3166 11.758 19.2334 12.061 19.2334C12.2798 19.2334 12.4723 19.2744 12.6387 19.3564C12.8073 19.4362 12.9508 19.5524 13.0693 19.7051V18.1978L12.5122 18.1021V17.668H13.7427V22.4736L14.2998 22.5693V23H13.1582L13.1035 22.5591C12.8574 22.9009 12.5076 23.0718 12.0542 23.0718ZM12.2251 22.5249C12.4256 22.5249 12.5942 22.4793 12.731 22.3882C12.8677 22.297 12.9805 22.1683 13.0693 22.002V20.2861C12.9827 20.1312 12.87 20.0081 12.731 19.917C12.592 19.8258 12.4256 19.7803 12.2319 19.7803C11.9106 19.7803 11.6725 19.9136 11.5176 20.1802C11.3649 20.4468 11.2886 20.7931 11.2886 21.2192V21.291C11.2886 21.6624 11.3649 21.9609 11.5176 22.1865C11.6702 22.4121 11.9061 22.5249 12.2251 22.5249ZM16.2173 23.0718C15.9165 23.0718 15.6579 22.9977 15.4414 22.8496C15.2272 22.6992 15.0632 22.4907 14.9492 22.2241C14.8353 21.9575 14.7783 21.6465 14.7783 21.291V21.2192C14.7783 20.8228 14.8353 20.4753 14.9492 20.1768C15.0632 19.8783 15.2284 19.647 15.4448 19.4829C15.6613 19.3166 15.9211 19.2334 16.2241 19.2334C16.4429 19.2334 16.6354 19.2744 16.8018 19.3564C16.9704 19.4362 17.1139 19.5524 17.2324 19.7051V18.1978L16.6753 18.1021V17.668H17.9058V22.4736L18.4629 22.5693V23H17.3213L17.2666 22.5591C17.0205 22.9009 16.6707 23.0718 16.2173 23.0718ZM16.3882 22.5249C16.5887 22.5249 16.7573 22.4793 16.894 22.3882C17.0308 22.297 17.1436 22.1683 17.2324 22.002V20.2861C17.1458 20.1312 17.033 20.0081 16.894 19.917C16.755 19.8258 16.5887 19.7803 16.395 19.7803C16.0737 19.7803 15.8356 19.9136 15.6807 20.1802C15.528 20.4468 15.4517 20.7931 15.4517 21.2192V21.291C15.4517 21.6624 15.528 21.9609 15.6807 22.1865C15.8333 22.4121 16.0692 22.5249 16.3882 22.5249ZM20.1787 23V22.5693L20.7358 22.4736V18.5327H19.6079L19.5088 19.2231H19.0029V18.0234H23.1387V19.2231H22.6396L22.5371 18.5327H21.4092V22.4736L21.9663 22.5693V23H20.1787ZM25.022 23L23.7061 19.7871L23.3232 19.7358V19.3018H24.875V19.7358L24.3931 19.8042L25.2134 21.9097L25.3091 22.207H25.3296L25.439 21.9097L26.2012 19.8042L25.7056 19.7358V19.3018H27.2539V19.7358L26.8643 19.7871L25.6133 23H25.022ZM29.5747 23.0718C29.0985 23.0718 28.7407 22.8895 28.5015 22.5249L28.4399 23H27.8589V18.1978L27.3018 18.1021V17.668H28.5322V19.7393C28.6484 19.5752 28.792 19.4499 28.9629 19.3633C29.1361 19.2767 29.3377 19.2334 29.5679 19.2334C29.8732 19.2334 30.133 19.3166 30.3472 19.4829C30.5636 19.647 30.7288 19.8783 30.8428 20.1768C30.959 20.4753 31.0171 20.8228 31.0171 21.2192V21.291C31.0171 21.6465 30.959 21.9575 30.8428 22.2241C30.7288 22.4907 30.5636 22.6992 30.3472 22.8496C30.133 22.9977 29.8755 23.0718 29.5747 23.0718ZM29.4038 22.5249C29.7205 22.5249 29.9552 22.4121 30.1079 22.1865C30.2629 21.9609 30.3403 21.6624 30.3403 21.291V21.2192C30.3403 20.7931 30.2629 20.4468 30.1079 20.1802C29.953 19.9136 29.716 19.7803 29.397 19.7803C29.1896 19.7803 29.0142 19.8304 28.8706 19.9307C28.7293 20.0309 28.6165 20.1654 28.5322 20.334V21.9678C28.6165 22.1387 28.7305 22.2743 28.874 22.3745C29.0199 22.4748 29.1965 22.5249 29.4038 22.5249ZM31.2734 23.4272L33.3516 18.0234H33.9189L31.8442 23.4272H31.2734ZM34.5171 22.7026V22.0327L36.561 21.2192L36.8481 21.1611V21.1406L36.561 21.0723L34.5171 20.2725V19.606L37.4395 20.8979V21.4072L34.5171 22.7026Z" fill="#FFAC00"/>
</svg>
