<svg width="192" height="192" viewBox="0 0 192 192" fill="none" xmlns="http://www.w3.org/2000/svg">
<circle cx="96" cy="96" r="96" fill="#222222"/>
<path d="M31.9375 106.328L19.1875 100.406V98.0781L31.9375 92.1719V95.3125L23.2031 98.9531L21.875 99.2344V99.3281L23.2031 99.625L31.9375 103.188V106.328ZM40.5312 108.328C38.7708 108.328 37.4323 107.901 36.5156 107.047C35.599 106.182 35.1406 104.969 35.1406 103.406C35.1406 101.802 35.7969 100.516 37.1094 99.5469C38.4219 98.5677 40.2448 98.0781 42.5781 98.0781H45.5938V96.4219C45.5938 95.401 45.2812 94.6094 44.6562 94.0469C44.0417 93.4844 43.1719 93.2031 42.0469 93.2031C41.3385 93.2031 40.724 93.2917 40.2031 93.4688C39.6823 93.6354 39.2083 93.8698 38.7812 94.1719L38.4531 96.5312H36.0781V92.6562C37.6094 91.4062 39.6146 90.7812 42.0938 90.7812C44.1458 90.7812 45.7552 91.2708 46.9219 92.25C48.0885 93.2292 48.6719 94.6302 48.6719 96.4531V104.594C48.6719 104.812 48.6719 105.026 48.6719 105.234C48.6823 105.443 48.6979 105.651 48.7188 105.859L50.3594 106.031V108H45.9375C45.7604 107.146 45.651 106.37 45.6094 105.672C45.0156 106.432 44.2708 107.068 43.375 107.578C42.4896 108.078 41.5417 108.328 40.5312 108.328ZM40.9844 105.75C42.0052 105.75 42.9375 105.505 43.7812 105.016C44.625 104.526 45.2292 103.938 45.5938 103.25V100.188H42.4688C41.0521 100.188 39.9896 100.526 39.2812 101.203C38.5729 101.88 38.2188 102.635 38.2188 103.469C38.2188 104.99 39.1406 105.75 40.9844 105.75ZM59.3906 108.328C58.0156 108.328 56.8333 107.99 55.8438 107.312C54.8646 106.625 54.1146 105.672 53.5938 104.453C53.0729 103.234 52.8125 101.812 52.8125 100.188V99.8594C52.8125 98.0469 53.0729 96.4583 53.5938 95.0938C54.1146 93.7292 54.8698 92.6719 55.8594 91.9219C56.849 91.1615 58.0365 90.7812 59.4219 90.7812C60.4219 90.7812 61.3021 90.9688 62.0625 91.3438C62.8333 91.7083 63.4896 92.2396 64.0312 92.9375V86.0469L61.4844 85.6094V83.625H67.1094V105.594L69.6562 106.031V108H64.4375L64.1875 105.984C63.0625 107.547 61.4635 108.328 59.3906 108.328ZM60.1719 105.828C61.0885 105.828 61.8594 105.62 62.4844 105.203C63.1094 104.786 63.625 104.198 64.0312 103.438V95.5938C63.6354 94.8854 63.1198 94.3229 62.4844 93.9062C61.849 93.4896 61.0885 93.2812 60.2031 93.2812C58.7344 93.2812 57.6458 93.8906 56.9375 95.1094C56.2396 96.3281 55.8906 97.9115 55.8906 99.8594V100.188C55.8906 101.885 56.2396 103.25 56.9375 104.281C57.6354 105.312 58.7135 105.828 60.1719 105.828ZM78.4219 108.328C77.0469 108.328 75.8646 107.99 74.875 107.312C73.8958 106.625 73.1458 105.672 72.625 104.453C72.1042 103.234 71.8438 101.812 71.8438 100.188V99.8594C71.8438 98.0469 72.1042 96.4583 72.625 95.0938C73.1458 93.7292 73.901 92.6719 74.8906 91.9219C75.8802 91.1615 77.0677 90.7812 78.4531 90.7812C79.4531 90.7812 80.3333 90.9688 81.0938 91.3438C81.8646 91.7083 82.5208 92.2396 83.0625 92.9375V86.0469L80.5156 85.6094V83.625H86.1406V105.594L88.6875 106.031V108H83.4688L83.2188 105.984C82.0938 107.547 80.4948 108.328 78.4219 108.328ZM79.2031 105.828C80.1198 105.828 80.8906 105.62 81.5156 105.203C82.1406 104.786 82.6562 104.198 83.0625 103.438V95.5938C82.6667 94.8854 82.151 94.3229 81.5156 93.9062C80.8802 93.4896 80.1198 93.2812 79.2344 93.2812C77.7656 93.2812 76.6771 93.8906 75.9688 95.1094C75.2708 96.3281 74.9219 97.9115 74.9219 99.8594V100.188C74.9219 101.885 75.2708 103.25 75.9688 104.281C76.6667 105.312 77.7448 105.828 79.2031 105.828ZM96.5312 108V106.031L99.0781 105.594V87.5781H93.9219L93.4688 90.7344H91.1562V85.25H110.062V90.7344H107.781L107.312 87.5781H102.156V105.594L104.703 106.031V108H96.5312ZM118.672 108L112.656 93.3125L110.906 93.0781V91.0938H118V93.0781L115.797 93.3906L119.547 103.016L119.984 104.375H120.078L120.578 103.016L124.062 93.3906L121.797 93.0781V91.0938H128.875V93.0781L127.094 93.3125L121.375 108H118.672ZM139.484 108.328C137.307 108.328 135.672 107.495 134.578 105.828L134.297 108H131.641V86.0469L129.094 85.6094V83.625H134.719V93.0938C135.25 92.3438 135.906 91.7708 136.688 91.375C137.479 90.9792 138.401 90.7812 139.453 90.7812C140.849 90.7812 142.036 91.1615 143.016 91.9219C144.005 92.6719 144.76 93.7292 145.281 95.0938C145.812 96.4583 146.078 98.0469 146.078 99.8594V100.188C146.078 101.812 145.812 103.234 145.281 104.453C144.76 105.672 144.005 106.625 143.016 107.312C142.036 107.99 140.859 108.328 139.484 108.328ZM138.703 105.828C140.151 105.828 141.224 105.312 141.922 104.281C142.63 103.25 142.984 101.885 142.984 100.188V99.8594C142.984 97.9115 142.63 96.3281 141.922 95.1094C141.214 93.8906 140.13 93.2812 138.672 93.2812C137.724 93.2812 136.922 93.5104 136.266 93.9688C135.62 94.4271 135.104 95.0417 134.719 95.8125V103.281C135.104 104.062 135.625 104.682 136.281 105.141C136.948 105.599 137.755 105.828 138.703 105.828ZM147.25 109.953L156.75 85.25H159.344L149.859 109.953H147.25ZM162.078 106.641V103.578L171.422 99.8594L172.734 99.5938V99.5L171.422 99.1875L162.078 95.5312V92.4844L175.438 98.3906V100.719L162.078 106.641Z" fill="#FFAC00"/>
</svg>
